# xmcd
#
# Track frame offsets:
#      150
#      18310
#      39023
#      62902
#      89771
#      112028
#      134060
#      154855
#      172379
#      195716
# 
# Disc length: 2889 seconds
#
# Revision: 4
# Processed by: cddbd v1.4PL0 Copyright (c) Steve Scherf et al.
#
# Submitted via: FreeRIP 1.20
#
DISCID=910b470a
DTITLE=Lighthouse Family - Whatever Gets You Through The Day
DYEAR=2001
DGENRE=Pop
TTITLE0=Run
TTITLE1=Happy
TTITLE2=(I Wish I Knew How It Would Feel To Be) Free/One
TTITLE3=End Of The Sky
TTITLE4=Life´s A Dream
TTITLE5=It´s A Beautiful Day
TTITLE6=You´re A Star
TTITLE7=You Always Want You Haven´t Got
TTITLE8=Wish
TTITLE9=Whatever Gets You Through The Day
EXTD=YEAR: 2001 ID3G: 13
EXTT0=
EXTT1=
EXTT2=
EXTT3=
EXTT4=
EXTT5=
EXTT6=
EXTT7=
EXTT8=
EXTT9=
PLAYORDER=
